<?xml version="1.0" encoding="UTF-8" standalone="no"?>
<!DOCTYPE svg PUBLIC "-//W3C//DTD SVG 1.1//EN" "http://www.w3.org/Graphics/SVG/1.1/DTD/svg11.dtd">
<svg width="100%" height="100%" viewBox="0 0 2100 750" version="1.1" xmlns="http://www.w3.org/2000/svg" xmlns:xlink="http://www.w3.org/1999/xlink" xml:space="preserve" xmlns:serif="http://www.serif.com/" style="fill-rule:evenodd;clip-rule:evenodd;stroke-linejoin:round;stroke-miterlimit:2;">
    <g transform="matrix(3.04947,0,0,3.04947,-2865.4,-467.994)">
        <path d="M1540.83,370.312L1540.83,338.491L1561.9,338.491L1561.9,370.312L1607.21,370.312L1607.21,330.273L1628.29,330.273L1628.29,393.493L939.64,393.493L939.64,330.273L960.713,330.273L960.713,370.312L999.7,370.312L999.7,338.491L1020.77,338.491L1020.77,370.312L1540.83,370.312ZM1122.13,311.107C1111.03,311.107 1102.56,307.946 1096.73,301.625C1090.9,295.303 1087.99,286.382 1087.99,274.863L1087.99,195.631C1087.99,184.111 1090.9,175.19 1096.73,168.869C1102.56,162.547 1111.03,159.386 1122.13,159.386C1133.22,159.386 1141.69,162.547 1147.52,168.869C1153.35,175.19 1156.26,184.111 1156.26,195.631L1156.26,211.224L1134.35,211.224L1134.35,194.156C1134.35,185.024 1130.49,180.459 1122.76,180.459C1115.03,180.459 1111.17,185.024 1111.17,194.156L1111.17,276.549C1111.17,285.539 1115.03,290.035 1122.76,290.035C1130.49,290.035 1134.35,285.539 1134.35,276.549L1134.35,254.001L1156.26,254.001L1156.26,274.863C1156.26,286.382 1153.35,295.303 1147.52,301.625C1141.69,307.946 1133.22,311.107 1122.13,311.107ZM1516.81,311.107C1505.57,311.107 1497.07,307.911 1491.31,301.519C1485.55,295.127 1482.67,285.961 1482.67,274.02L1482.67,265.591L1504.59,265.591L1504.59,275.706C1504.59,285.258 1508.59,290.035 1516.6,290.035C1520.53,290.035 1523.52,288.876 1525.56,286.558C1527.59,284.24 1528.61,280.482 1528.61,275.284C1528.61,269.103 1527.21,263.659 1524.4,258.953C1521.59,254.247 1516.39,248.593 1508.8,241.99C1499.25,233.561 1492.58,225.94 1488.79,219.126C1484.99,212.313 1483.1,204.622 1483.1,196.052C1483.1,184.392 1486.05,175.366 1491.95,168.974C1497.85,162.582 1506.42,159.386 1517.65,159.386C1528.75,159.386 1537.15,162.582 1542.84,168.974C1548.53,175.366 1551.37,184.533 1551.37,196.474L1551.37,202.585L1529.45,202.585L1529.45,194.999C1529.45,189.941 1528.47,186.253 1526.51,183.936C1524.54,181.618 1521.66,180.459 1517.87,180.459C1510.14,180.459 1506.28,185.165 1506.28,194.577C1506.28,199.915 1507.71,204.903 1510.6,209.538C1513.48,214.174 1518.71,219.794 1526.29,226.396C1535.99,234.825 1542.66,242.482 1546.31,249.365C1549.97,256.249 1551.79,264.327 1551.79,273.598C1551.79,285.68 1548.81,294.952 1542.84,301.414C1536.87,307.876 1528.19,311.107 1516.81,311.107ZM939.64,161.493L1000.96,161.493L1000.96,182.566L962.819,182.566L962.819,223.657L992.742,223.657L992.742,244.729L962.819,244.729L962.819,309L939.64,309L939.64,161.493ZM1246.66,161.493L1269.84,161.493L1269.84,287.928L1307.99,287.928L1307.99,309L1246.66,309L1246.66,161.493ZM1170.17,161.493L1233.39,161.493L1233.39,182.566L1193.35,182.566L1193.35,221.55L1225.17,221.55L1225.17,242.622L1193.35,242.622L1193.35,287.928L1233.39,287.928L1233.39,309L1170.17,309L1170.17,161.493ZM1565.07,161.493L1628.29,161.493L1628.29,182.566L1588.25,182.566L1588.25,221.55L1620.07,221.55L1620.07,242.622L1588.25,242.622L1588.25,287.928L1628.29,287.928L1628.29,309L1565.07,309L1565.07,161.493ZM1404.5,161.493L1438.63,161.493C1450.15,161.493 1458.79,164.584 1464.55,170.765C1470.31,176.947 1473.19,186.008 1473.19,197.949L1473.19,212.489C1473.19,224.43 1470.31,233.491 1464.55,239.672C1458.79,245.853 1450.15,248.944 1438.63,248.944L1427.68,248.944L1427.68,309L1404.5,309L1404.5,161.493ZM1023.3,161.493L1054.69,161.493L1078.72,309L1055.54,309L1051.32,279.709L1051.32,280.131L1024.98,280.131L1020.77,309L999.274,309L1023.3,161.493ZM1337.91,161.493L1369.31,161.493L1393.33,309L1370.15,309L1365.93,279.709L1365.93,280.131L1339.59,280.131L1335.38,309L1313.88,309L1337.91,161.493ZM1048.58,260.112L1038.26,187.202L1037.84,187.202L1027.72,260.112L1048.58,260.112ZM1363.19,260.112L1352.87,187.202L1352.45,187.202L1342.33,260.112L1363.19,260.112ZM1438.63,227.871C1442.43,227.871 1445.27,226.818 1447.17,224.711C1449.06,222.603 1450.01,219.021 1450.01,213.964L1450.01,196.474C1450.01,191.416 1449.06,187.834 1447.17,185.727C1445.27,183.619 1442.43,182.566 1438.63,182.566L1427.68,182.566L1427.68,227.871L1438.63,227.871Z" style="fill-rule:nonzero;"/>
    </g>
</svg>
